<svg xmlns="http://www.w3.org/2000/svg" viewBox="0 0 760 220" width="760" height="220">
  <defs>
    <linearGradient id="bag" x1="0" y1="0" x2="0" y2="1">
      <stop offset="0" stop-color="#34c77b"/>
      <stop offset="1" stop-color="#128046"/>
    </linearGradient>
    <linearGradient id="sq" x1="0" y1="0" x2="0" y2="1">
      <stop offset="0" stop-color="#34c77b"/>
      <stop offset="1" stop-color="#128046"/>
    </linearGradient>
  </defs>
  <!-- icon: rounded square with bag -->
  <rect x="10" y="10" width="200" height="200" rx="46" fill="url(#sq)"/>
  <path d="M110 52 a30 30 0 0 1 30 30 v6 h-13 v-6 a17 17 0 0 0 -34 0 v6 h-13 v-6 a30 30 0 0 1 30 -30 z" fill="#ffffff"/>
  <rect x="66" y="84" width="88" height="80" rx="14" fill="#ffffff"/>
  <rect x="78" y="104" width="26" height="26" rx="7" fill="#f59e0b"/>
  <rect x="97" y="116" width="26" height="26" rx="7" fill="#8b5cf6"/>
  <rect x="81" y="126" width="26" height="26" rx="7" fill="#4ade80"/>
  <circle cx="70" cy="168" r="17" fill="#22c55e"/>
  <path d="M63 168 l5 5 l10 -11" stroke="#ffffff" stroke-width="5" fill="none" stroke-linecap="round" stroke-linejoin="round"/>
  <rect x="138" y="60" width="36" height="30" rx="9" fill="#22c55e"/>
  <text x="156" y="81" font-family="'Google Sans', Arial, Helvetica, sans-serif" font-weight="900" font-size="20" fill="#ffffff" text-anchor="middle">%</text>
  <!-- wordmark -->
  <text x="248" y="122" font-family="'Google Sans', Arial, Helvetica, sans-serif" font-weight="900" font-size="88" fill="#ffffff">PickPack</text>
  <text x="252" y="170" font-family="'Google Sans', Arial, Helvetica, sans-serif" font-weight="bold" font-size="40" fill="#86efac">for WooCommerce</text>
</svg>
